<?xml version="1.0" standalone="no"?>
<!DOCTYPE svg PUBLIC "-//W3C//DTD SVG 20010904//EN"
 "http://www.w3.org/TR/2001/REC-SVG-20010904/DTD/svg10.dtd">
<svg version="1.0" xmlns="http://www.w3.org/2000/svg"
 width="487.000000pt" height="513.000000pt" viewBox="0 0 487.000000 513.000000"
 preserveAspectRatio="xMidYMid meet">

<g transform="translate(0.000000,513.000000) scale(0.100000,-0.100000)"
fill="#000000" stroke="none">
<path d="M2182 4733 c-50 -60 -132 -153 -182 -208 -51 -55 -144 -160 -207
-232 -63 -73 -118 -133 -124 -133 -5 0 -9 12 -9 28 -1 42 -33 104 -75 141 -41
36 -149 91 -178 91 -22 0 -23 -4 -88 -222 -30 -98 -57 -178 -61 -178 -4 0 -63
29 -130 65 -135 71 -203 90 -214 60 -10 -26 8 -86 69 -232 30 -70 62 -150 72
-177 19 -52 78 -126 101 -126 41 0 39 95 -4 228 -11 34 -16 62 -11 62 17 0
133 -62 179 -95 66 -47 105 -65 143 -65 40 0 55 14 63 61 14 88 10 86 62 28
71 -79 148 -102 189 -56 11 12 51 78 88 147 79 147 137 236 220 339 39 50 61
70 63 59 2 -9 -8 -90 -22 -180 -14 -89 -28 -190 -31 -223 -10 -91 -26 -167
-41 -190 -18 -27 -4 -78 43 -164 63 -114 139 -181 205 -181 22 0 33 7 46 32
28 53 72 89 160 130 137 65 252 89 417 89 358 1 645 -118 895 -370 154 -154
255 -322 326 -537 73 -223 96 -376 96 -634 0 -213 -12 -325 -48 -440 -55 -173
-107 -220 -251 -228 -275 -15 -583 119 -824 358 -127 125 -228 304 -244 430
-13 103 -72 175 -188 229 -84 39 -102 44 -114 29 -47 -60 -67 -390 -39 -616
41 -321 150 -611 315 -837 28 -38 49 -71 47 -73 -8 -7 -162 64 -267 123 -309
174 -553 376 -700 580 -131 181 -259 490 -259 623 0 23 -4 42 -9 42 -5 0 -21
-23 -35 -52 -49 -98 -28 -231 65 -428 171 -359 485 -656 993 -940 282 -157
646 -318 740 -328 40 -4 52 -1 63 13 31 44 3 138 -58 193 -48 42 -149 92 -209
103 -196 35 -407 345 -464 678 -24 143 -17 434 12 463 4 4 37 -33 72 -84 172
-243 412 -448 685 -586 225 -113 642 -232 810 -232 55 0 64 25 70 181 2 74 9
186 15 249 6 63 14 216 17 340 5 196 3 244 -16 370 -45 311 -141 579 -294 822
-160 253 -401 469 -676 608 -319 160 -605 192 -1093 124 l-48 -7 0 41 c0 210
66 485 162 676 22 44 40 94 40 111 0 42 -35 108 -69 133 -33 23 -149 82 -161
82 -5 0 -50 -48 -100 -107z"/>
<path d="M1264 1726 c-10 -26 3 -159 24 -256 41 -180 136 -322 247 -369 72
-31 118 -22 152 28 26 39 29 81 12 211 -19 152 -121 290 -268 363 -80 40 -157
50 -167 23z"/>
<path d="M1056 1085 c-8 -33 11 -76 75 -172 184 -274 464 -437 892 -518 247
-46 424 -55 642 -30 106 12 341 58 353 70 2 1 -103 3 -233 4 -299 1 -618 35
-925 97 -381 77 -579 209 -754 502 -40 66 -44 70 -50 47z"/>
</g>
</svg>
