<?xml version="1.0" standalone="no"?>
<!DOCTYPE svg PUBLIC "-//W3C//DTD SVG 20010904//EN"
 "http://www.w3.org/TR/2001/REC-SVG-20010904/DTD/svg10.dtd">
<svg version="1.0" xmlns="http://www.w3.org/2000/svg"
 width="841.000000pt" height="310.000000pt" viewBox="0 0 841.000000 310.000000"
 preserveAspectRatio="xMidYMid meet">

<g transform="translate(0.000000,310.000000) scale(0.100000,-0.100000)"
fill="#000000" stroke="none">
<path d="M6851 2933 c-6 -21 -18 -72 -27 -113 -26 -113 -147 -338 -249 -461
-67 -82 -203 -165 -256 -157 -33 4 -59 93 -68 237 l-7 114 -37 33 c-49 46 -73
45 -86 -4 -6 -21 -12 -59 -13 -84 -3 -43 -4 -45 -20 -31 -9 8 -22 12 -28 8
-16 -10 -74 -103 -90 -145 -7 -19 -46 -109 -85 -200 -169 -384 -285 -711 -360
-1010 -31 -123 -53 -258 -75 -455 -12 -112 -12 -118 0 -110 6 3 10 0 10 -7 0
-7 9 -19 21 -26 18 -11 23 -11 34 5 29 38 156 387 219 598 72 246 132 438 265
850 49 154 93 292 97 308 8 35 24 45 24 16 0 -34 65 -158 111 -214 56 -68 120
-112 185 -126 30 -7 54 -13 54 -15 0 -1 -43 -110 -96 -241 -170 -422 -320
-836 -393 -1088 -26 -87 -67 -295 -79 -395 -7 -64 -8 -94 -3 -143 1 -9 52 -30
58 -23 21 21 249 559 349 826 47 124 91 241 98 260 8 19 24 61 36 93 13 32 26
56 31 55 4 -2 25 -28 46 -58 39 -55 88 -96 130 -106 44 -11 78 7 144 79 l66
71 16 -55 c21 -71 88 -174 129 -199 43 -26 45 -25 63 10 19 36 19 40 1 40 -12
0 -15 17 -15 77 l0 77 40 -67 c22 -36 56 -79 75 -95 104 -86 262 -57 377 68
141 155 136 322 -16 486 l-56 60 25 45 c31 53 106 133 194 202 208 165 496
420 505 447 4 11 12 20 18 20 7 1 37 23 67 51 40 37 51 52 41 58 -8 5 -28 1
-50 -10 -20 -10 -92 -46 -161 -80 -281 -137 -501 -262 -683 -386 -180 -123
-186 -129 -187 -194 0 -68 65 -183 154 -269 52 -50 58 -78 29 -138 -20 -42
-92 -116 -134 -138 -18 -9 -42 -12 -66 -8 -95 14 -132 15 -150 6 -19 -11 -20
-9 -11 46 12 79 34 141 68 196 43 68 46 87 17 149 -29 64 -101 124 -184 153
l-52 18 -24 -26 c-13 -14 -50 -39 -81 -54 -34 -17 -95 -63 -147 -112 -86 -81
-88 -83 -75 -45 13 36 138 345 259 643 76 188 158 353 212 429 25 35 45 73 45
86 0 64 -57 133 -150 180 -70 35 -87 33 -99 -12z"/>
<path d="M5515 2670 c-4 -6 -13 -9 -20 -6 -30 11 -59 -41 -120 -214 -19 -52
-52 -142 -75 -200 -102 -262 -167 -451 -200 -584 -16 -65 -31 -120 -32 -121
-2 0 -15 -8 -29 -17 -29 -18 -99 -34 -99 -23 0 4 13 24 28 44 84 106 99 169
61 247 -23 48 -57 77 -144 122 -78 40 -98 45 -127 32 -45 -21 -132 -177 -162
-293 -11 -40 -15 -47 -21 -32 -12 36 -22 50 -44 61 -31 16 -57 7 -95 -30 l-31
-32 3 61 c4 75 -18 122 -70 150 -29 15 -42 17 -55 9 -21 -12 -55 -78 -119
-229 -67 -156 -63 -238 16 -348 46 -64 67 -74 108 -53 40 21 57 62 76 190 9
60 19 113 22 118 3 5 16 -11 28 -36 74 -146 197 -228 277 -186 15 9 26 6 52
-13 97 -72 188 -48 272 73 15 22 29 39 31 37 2 -1 -1 -34 -6 -72 -23 -181 -18
-270 17 -263 32 6 181 309 246 498 54 160 152 488 192 650 68 272 81 391 46
443 -12 19 -21 25 -26 17z"/>
<path d="M1264 2625 c-184 -55 -477 -318 -641 -575 -159 -248 -233 -550 -188
-763 30 -143 153 -311 274 -376 184 -98 438 -78 706 57 106 53 249 145 268
172 8 11 17 17 21 13 4 -4 4 0 0 10 -4 11 -1 17 8 17 16 0 92 77 101 103 4 11
1 17 -9 17 -9 0 -12 -5 -8 -12 4 -7 3 -8 -5 -4 -6 4 -18 1 -26 -7 -14 -15
-139 -65 -275 -112 -98 -34 -292 -80 -400 -96 -117 -17 -334 -16 -385 2 -79
28 -111 126 -103 307 14 278 153 582 397 865 134 155 327 299 406 302 53 2 43
54 -15 78 -37 15 -80 16 -126 2z"/>
<path d="M3294 2462 c-18 -11 -39 -60 -74 -167 -46 -144 -93 -262 -166 -414
-36 -76 -64 -147 -64 -165 0 -38 46 -137 89 -190 17 -21 31 -42 31 -46 0 -6
-51 -42 -81 -58 -3 -1 -2 26 2 60 5 43 4 67 -4 77 -10 12 -9 13 2 6 10 -5 12
-4 7 3 -5 9 -13 9 -26 2 -46 -25 -70 -14 -165 78 -33 32 -71 65 -85 74 l-25
16 23 25 c19 20 23 32 17 56 -9 42 -27 58 -86 75 -42 13 -54 13 -82 1 -26 -11
-117 -74 -137 -94 -3 -3 -31 -30 -62 -60 l-57 -55 6 36 c8 53 -23 140 -64 183
-42 43 -141 95 -182 95 -78 0 -413 -162 -651 -315 -187 -120 -348 -207 -448
-240 -29 -9 -56 -23 -58 -30 -7 -19 29 -86 69 -129 47 -50 75 -48 173 13 305
191 900 498 922 477 8 -9 -69 -222 -158 -441 -194 -474 -265 -750 -265 -1025
0 -102 25 -165 66 -165 18 0 25 6 27 25 5 38 29 111 82 250 27 69 74 197 106
285 76 215 84 235 155 420 33 88 74 195 90 238 16 44 37 93 45 110 l16 30 31
-49 c74 -120 128 -164 201 -164 39 0 55 11 145 99 39 39 81 73 91 76 14 4 32
-3 58 -23 49 -39 96 -62 124 -62 18 0 12 -7 -29 -35 -72 -48 -86 -70 -68 -105
7 -14 31 -43 52 -64 37 -37 39 -38 98 -32 80 8 192 63 325 160 161 117 320
224 258 173 -26 -21 -21 -56 16 -114 57 -90 103 -135 144 -139 46 -6 54 0 131
111 71 100 114 154 211 265 79 90 130 159 130 177 0 7 5 22 12 32 24 38 5 49
-76 45 -100 -5 -184 -49 -300 -156 -11 -10 -30 -18 -42 -18 -24 0 -48 -23 -36
-34 4 -4 2 -6 -4 -4 -6 2 -27 -15 -47 -36 l-37 -39 0 47 c0 85 -43 138 -161
201 -77 40 -91 42 -127 16 -40 -28 -132 -72 -132 -64 0 21 55 209 101 345 73
217 70 301 -12 344 -32 16 -31 16 -45 6z"/>
<path d="M4280 2168 c1 -28 39 -96 78 -136 40 -41 65 -52 77 -32 4 6 10 8 15
5 5 -3 11 -1 15 5 3 5 3 10 -2 10 -4 0 -8 14 -9 30 -1 38 -34 74 -97 106 -54
27 -77 30 -77 12z"/>
</g>
</svg>
